<svg xmlns="http://www.w3.org/2000/svg" xmlns:xlink="http://www.w3.org/1999/xlink" width="1080" zoomAndPan="magnify" viewBox="0 0 810 809.999993" height="1080" preserveAspectRatio="xMidYMid meet" version="1.0"><defs><g/><clipPath id="9ea4bfaf46"><path d="M 561 250.371094 L 721 250.371094 L 721 410 L 561 410 Z M 561 250.371094 " clip-rule="nonzero"/></clipPath><clipPath id="e0f262f684"><path d="M 679 647 L 761 647 L 761 728.871094 L 679 728.871094 Z M 679 647 " clip-rule="nonzero"/></clipPath><clipPath id="dbe494045d"><path d="M 145.078125 412 L 174 412 L 174 447 L 145.078125 447 Z M 145.078125 412 " clip-rule="nonzero"/></clipPath><clipPath id="cc6fb217b4"><path d="M 332.480469 418.042969 L 360.621094 418.042969 L 360.621094 449.375 L 332.480469 449.375 Z M 332.480469 418.042969 " clip-rule="nonzero"/></clipPath></defs><g fill="#fed9e9" fill-opacity="1"><g transform="translate(80.999999, 186.12509)"><g><path d="M 72.863281 -59.039062 C 72.863281 -67.96875 73.296875 -76.894531 72.574219 -85.824219 C 72 -92.449219 67.824219 -95.761719 62.640625 -95.902344 C 57.3125 -95.902344 53.566406 -92.160156 52.414062 -85.390625 C 51.121094 -77.902344 49.96875 -70.414062 48.816406 -62.785156 C 48.238281 -58.320312 46.945312 -54.433594 41.902344 -53.566406 C 37.007812 -52.558594 32.832031 -54.71875 30.816406 -59.039062 C 29.089844 -63.070312 27.792969 -67.679688 27.503906 -72 C 27.214844 -80.207031 28.078125 -88.414062 28.078125 -96.625 C 28.078125 -100.945312 26.351562 -104.6875 21.742188 -105.695312 C 16.847656 -106.847656 13.824219 -103.824219 11.808594 -99.792969 C 11.089844 -98.496094 10.367188 -97.054688 10.078125 -95.617188 C 8.351562 -86.257812 5.617188 -76.894531 5.328125 -67.535156 C 4.464844 -46.65625 18.433594 -31.824219 39.167969 -30.238281 C 43.488281 -29.953125 44.207031 -28.367188 44.0625 -24.625 C 43.777344 -19.441406 43.777344 -14.257812 44.640625 -9.214844 C 45.648438 -3.742188 49.535156 -0.144531 55.296875 0.433594 C 61.199219 0.863281 65.519531 -2.160156 67.535156 -7.34375 C 69.121094 -11.089844 70.128906 -15.40625 70.558594 -19.441406 C 71.710938 -32.6875 72.433594 -45.792969 73.441406 -59.039062 C 73.152344 -59.039062 73.007812 -59.039062 72.863281 -59.039062 Z M 72.863281 -59.039062 "/></g></g></g><g fill="#fed9e9" fill-opacity="1"><g transform="translate(167.111962, 186.12509)"><g><path d="M 24.625 -90.433594 C 3.457031 -72 -0.863281 -40.464844 14.398438 -16.992188 C 19.441406 -9.214844 26.496094 -5.183594 35.855469 -5.183594 C 45.214844 -5.183594 53.566406 -7.777344 60.910156 -13.679688 C 71.710938 -22.753906 79.34375 -33.984375 82.945312 -47.808594 C 90 -75.3125 75.742188 -96.046875 48.382812 -98.207031 C 39.167969 -99.503906 31.390625 -96.191406 24.625 -90.433594 Z M 42.046875 -75.886719 C 44.351562 -78.191406 46.511719 -77.902344 48.816406 -75.457031 C 61.34375 -62.929688 61.054688 -44.496094 48.097656 -32.542969 C 40.464844 -25.488281 34.273438 -26.785156 30.671875 -36.289062 C 29.375 -39.886719 28.511719 -43.488281 27.648438 -46.945312 C 29.519531 -58.320312 33.839844 -68.113281 42.046875 -75.886719 Z M 42.046875 -75.886719 "/></g></g></g><g fill="#fed9e9" fill-opacity="1"><g transform="translate(264.599918, 186.12509)"><g><path d="M 72.863281 -59.039062 C 72.863281 -67.96875 73.296875 -76.894531 72.574219 -85.824219 C 72 -92.449219 67.824219 -95.761719 62.640625 -95.902344 C 57.3125 -95.902344 53.566406 -92.160156 52.414062 -85.390625 C 51.121094 -77.902344 49.96875 -70.414062 48.816406 -62.785156 C 48.238281 -58.320312 46.945312 -54.433594 41.902344 -53.566406 C 37.007812 -52.558594 32.832031 -54.71875 30.816406 -59.039062 C 29.089844 -63.070312 27.792969 -67.679688 27.503906 -72 C 27.214844 -80.207031 28.078125 -88.414062 28.078125 -96.625 C 28.078125 -100.945312 26.351562 -104.6875 21.742188 -105.695312 C 16.847656 -106.847656 13.824219 -103.824219 11.808594 -99.792969 C 11.089844 -98.496094 10.367188 -97.054688 10.078125 -95.617188 C 8.351562 -86.257812 5.617188 -76.894531 5.328125 -67.535156 C 4.464844 -46.65625 18.433594 -31.824219 39.167969 -30.238281 C 43.488281 -29.953125 44.207031 -28.367188 44.0625 -24.625 C 43.777344 -19.441406 43.777344 -14.257812 44.640625 -9.214844 C 45.648438 -3.742188 49.535156 -0.144531 55.296875 0.433594 C 61.199219 0.863281 65.519531 -2.160156 67.535156 -7.34375 C 69.121094 -11.089844 70.128906 -15.40625 70.558594 -19.441406 C 71.710938 -32.6875 72.433594 -45.792969 73.441406 -59.039062 C 73.152344 -59.039062 73.007812 -59.039062 72.863281 -59.039062 Z M 72.863281 -59.039062 "/></g></g></g><g fill="#ffffff" fill-opacity="1"><g transform="translate(80.999999, 271.025104)"><g><path d="M 24.652344 -26.964844 C 22.722656 -31.667969 18.355469 -33.894531 12.640625 -33.136719 C 9.070312 -32.761719 6.71875 -31.078125 5.585938 -30.28125 C 4.996094 -29.863281 4.789062 -29.695312 4.492188 -29.820312 L 4.242188 -29.902344 L 4.199219 -30.199219 C 4.074219 -31.667969 3.527344 -31.878906 2.941406 -31.878906 C 2.941406 -31.878906 2.898438 -31.878906 2.898438 -31.878906 C 2.308594 -31.878906 1.722656 -31.667969 1.679688 -30.199219 C 1.679688 -26.417969 1.847656 -22.636719 2.058594 -18.941406 C 2.183594 -16.128906 2.351562 -13.273438 2.394531 -10.457031 C 2.394531 -9.535156 2.394531 -8.609375 2.394531 -7.726562 C 2.351562 -5.671875 2.351562 -3.527344 2.605469 -1.429688 C 2.6875 -0.757812 3.066406 0.0429688 4.15625 0 C 4.492188 0 5.460938 -0.0429688 5.628906 -1.597656 C 5.671875 -1.972656 5.628906 -2.351562 5.628906 -2.773438 C 5.585938 -3.023438 5.585938 -3.234375 5.585938 -3.484375 C 5.585938 -5.25 5.585938 -7.015625 5.585938 -8.777344 L 5.585938 -11.425781 L 6.132812 -11.214844 C 11.214844 -9.367188 15.917969 -9.996094 20.578125 -13.273438 C 25.746094 -16.84375 27.046875 -21.210938 24.652344 -26.964844 Z M 21.460938 -20.746094 C 21.378906 -19.738281 20.832031 -18.605469 20.160156 -17.933594 C 17.515625 -15.289062 14.574219 -13.945312 11.59375 -13.945312 C 9.828125 -13.945312 8.105469 -14.40625 6.34375 -15.328125 C 5.671875 -15.664062 6.132812 -22.597656 6.175781 -22.679688 C 6.59375 -25.789062 7.183594 -26.796875 9.574219 -28.265625 C 12.097656 -29.820312 15.328125 -29.902344 17.808594 -28.476562 C 20.496094 -26.921875 21.714844 -24.316406 21.460938 -20.746094 Z M 21.460938 -20.746094 "/></g></g></g><g fill="#ffffff" fill-opacity="1"><g transform="translate(110.651992, 271.025104)"><g><path d="M 20.789062 -4.746094 C 20.203125 -8.863281 19.570312 -12.976562 18.941406 -17.136719 C 18.816406 -18.144531 18.691406 -19.320312 17.554688 -19.53125 C 16.800781 -19.699219 15.875 -19.234375 15.035156 -19.066406 C 12.179688 -20.074219 10.585938 -20.035156 7.726562 -18.3125 C 6.71875 -17.683594 5.710938 -16.925781 4.828125 -16.128906 C 1.933594 -13.480469 0.925781 -9.03125 2.308594 -5.710938 C 3.78125 -2.226562 7.222656 -0.925781 10.542969 -2.6875 C 11.675781 -3.277344 12.683594 -4.15625 13.648438 -5.039062 C 14.40625 -5.710938 14.992188 -6.59375 15.835938 -7.601562 C 15.960938 -7.097656 15.960938 -6.761719 16.085938 -6.511719 C 16.714844 -4.746094 17.304688 -2.941406 18.144531 -1.261719 C 18.355469 -0.796875 19.445312 -0.335938 19.90625 -0.503906 C 20.453125 -0.714844 20.957031 -1.554688 21.085938 -2.183594 C 21.210938 -2.980469 20.914062 -3.863281 20.789062 -4.746094 Z M 14.574219 -13.523438 C 13.691406 -10.878906 12.222656 -8.566406 10.078125 -6.761719 C 9.15625 -6.007812 8.105469 -5.207031 6.886719 -5.878906 C 5.671875 -6.550781 5.542969 -7.8125 5.460938 -8.777344 C 5.503906 -12.136719 9.03125 -16.085938 12.054688 -16.421875 C 14.113281 -16.675781 15.203125 -15.414062 14.574219 -13.523438 Z M 14.574219 -13.523438 "/></g></g></g><g fill="#ffffff" fill-opacity="1"><g transform="translate(135.599994, 271.025104)"><g><path d="M 16.589844 -18.394531 C 16.546875 -18.898438 15.664062 -19.570312 15.121094 -19.65625 C 14.617188 -19.738281 13.984375 -19.109375 13.480469 -18.730469 C 13.3125 -18.605469 13.273438 -18.269531 13.3125 -18.3125 C 11.425781 -18.3125 9.660156 -18.605469 8.0625 -18.269531 C 2.5625 -17.09375 0.925781 -11.761719 2.015625 -7.183594 C 3.234375 -2.183594 8.484375 -0.503906 12.472656 -3.695312 C 12.726562 -3.90625 12.9375 -4.117188 13.480469 -4.535156 C 12.640625 -0.546875 11.425781 2.730469 8.023438 4.789062 C 7.519531 5.082031 7.054688 5.417969 6.59375 5.796875 C 5.039062 7.054688 4.535156 8.359375 5.207031 9.367188 C 5.878906 10.332031 7.308594 10.375 9.03125 9.449219 C 12.390625 7.558594 14.785156 4.914062 16.128906 1.261719 C 18.523438 -5.25 17.179688 -11.84375 16.589844 -18.394531 Z M 10.289062 -6.761719 C 9.535156 -6.046875 8.695312 -5.417969 7.519531 -5.921875 C 6.34375 -6.382812 5.710938 -7.351562 5.542969 -8.566406 C 4.871094 -13.398438 8.273438 -16.085938 13.144531 -14.449219 C 12.769531 -11.675781 12.601562 -8.863281 10.289062 -6.761719 Z M 10.289062 -6.761719 "/></g></g></g><g fill="#ffffff" fill-opacity="1"><g transform="translate(156.935985, 271.025104)"><g><path d="M 5.710938 -9.871094 C 7.894531 -9.910156 10.039062 -9.910156 12.222656 -9.953125 C 14.953125 -10.039062 16.589844 -11.128906 17.09375 -13.0625 C 17.808594 -16.042969 16.210938 -19.152344 13.230469 -20.453125 C 10.078125 -21.839844 7.140625 -21.167969 5.082031 -18.5625 C 2.730469 -15.625 1.597656 -12.265625 1.722656 -8.609375 C 1.804688 -5.292969 3.445312 -2.6875 6.550781 -1.09375 C 9.703125 0.503906 12.976562 0.335938 16.085938 -1.300781 C 16.632812 -1.597656 17.21875 -2.519531 17.09375 -2.980469 C 16.96875 -3.445312 15.960938 -3.90625 15.371094 -3.949219 C 14.195312 -4.03125 13.019531 -3.738281 11.886719 -3.613281 C 8.023438 -3.191406 5.039062 -6.046875 5.503906 -9.742188 C 5.628906 -9.828125 5.671875 -9.871094 5.710938 -9.871094 Z M 8.398438 -17.21875 C 9.449219 -18.1875 11.003906 -18.144531 12.472656 -17.261719 C 13.523438 -16.589844 14.363281 -14.785156 13.859375 -13.777344 C 13.648438 -13.355469 12.9375 -12.976562 12.433594 -12.9375 C 10.289062 -12.726562 8.148438 -12.683594 5.839844 -12.601562 C 6.382812 -14.363281 7.054688 -16.003906 8.398438 -17.21875 Z M 8.398438 -17.21875 "/></g></g></g><g fill="#ffffff" fill-opacity="1"><g transform="translate(178.019984, 271.025104)"><g/></g></g><g fill="#ffffff" fill-opacity="1"><g transform="translate(196.541982, 271.025104)"><g><path d="M 26.082031 -6.511719 C 25.285156 -7.476562 24.570312 -8.527344 23.730469 -9.492188 C 18.605469 -15.539062 13.480469 -21.589844 8.273438 -27.550781 C 7.390625 -28.558594 6.046875 -29.230469 4.828125 -29.945312 C 4.074219 -30.367188 3.359375 -29.945312 3.109375 -29.105469 C 2.898438 -28.558594 2.773438 -27.972656 2.773438 -27.382812 C 2.394531 -19.613281 2.015625 -11.84375 1.722656 -4.074219 C 1.679688 -3.191406 1.765625 -2.308594 1.972656 -1.46875 C 2.226562 -0.503906 2.855469 0.0859375 3.90625 0.0429688 C 4.957031 -0.0429688 5.417969 -0.757812 5.628906 -1.679688 C 5.710938 -2.101562 5.710938 -2.5625 5.710938 -2.980469 C 5.796875 -9.703125 5.878906 -16.421875 5.921875 -23.101562 C 5.921875 -23.519531 6.007812 -23.941406 6.046875 -24.613281 C 7.265625 -22.972656 8.230469 -21.503906 9.324219 -20.160156 C 14.28125 -14.28125 19.277344 -8.441406 24.277344 -2.5625 C 24.652344 -2.101562 25.15625 -1.636719 25.660156 -1.300781 C 27.34375 -0.253906 29.0625 -0.882812 29.609375 -2.773438 C 29.902344 -3.738281 29.945312 -4.703125 30.070312 -5.671875 C 31.039062 -14.238281 30.03125 -22.804688 30.15625 -31.332031 C 30.15625 -32.339844 29.695312 -33.097656 28.644531 -33.222656 C 27.636719 -33.390625 26.921875 -32.800781 26.671875 -31.878906 C 26.417969 -30.828125 26.292969 -29.734375 26.335938 -28.6875 C 26.460938 -25.367188 26.878906 -22.050781 26.921875 -18.730469 C 26.964844 -14.699219 26.671875 -10.625 26.542969 -6.59375 C 26.375 -6.550781 26.207031 -6.511719 26.082031 -6.511719 Z M 26.082031 -6.511719 "/></g></g></g><g fill="#ffffff" fill-opacity="1"><g transform="translate(230.89798, 271.025104)"><g><path d="M 18.816406 -12.097656 C 18.4375 -15.035156 14.53125 -18.605469 11.632812 -18.648438 C 6.382812 -18.816406 1.679688 -14.40625 1.679688 -9.199219 C 1.722656 -5.125 3.988281 -2.351562 7.980469 -1.597656 C 13.734375 -0.546875 19.613281 -6.300781 18.816406 -12.097656 Z M 10.710938 -5.710938 C 7.980469 -4.660156 5.460938 -6.425781 5.417969 -9.324219 C 5.375 -12.304688 8.316406 -15.371094 11.339844 -15.414062 C 11.800781 -15.414062 12.265625 -14.824219 12.683594 -14.488281 C 15.664062 -12.347656 15.539062 -7.601562 10.710938 -5.710938 Z M 10.710938 -5.710938 "/></g></g></g><g fill="#ffffff" fill-opacity="1"><g transform="translate(253.619982, 271.025104)"><g><path d="M 16.800781 -2.644531 C 16.464844 -4.03125 15.289062 -3.445312 14.320312 -3.359375 C 12.769531 -3.277344 11.046875 -2.8125 9.910156 -4.324219 C 8.191406 -6.679688 7.8125 -9.40625 8.105469 -12.304688 C 8.734375 -12.347656 9.28125 -12.347656 9.828125 -12.433594 C 11.296875 -12.683594 12.851562 -12.851562 14.28125 -13.273438 C 14.742188 -13.398438 15.289062 -14.195312 15.246094 -14.699219 C 15.246094 -15.160156 14.617188 -15.875 14.152344 -15.960938 C 12.976562 -16.253906 11.761719 -16.296875 10.585938 -16.339844 C 9.828125 -16.378906 9.113281 -16.296875 8.191406 -16.253906 C 8.484375 -18.226562 8.695312 -20.035156 8.945312 -21.796875 C 9.070312 -22.679688 9.070312 -23.519531 8.023438 -23.773438 C 7.054688 -23.980469 6.511719 -23.308594 6.257812 -22.46875 C 5.839844 -21.125 5.417969 -19.738281 5.164062 -18.3125 C 4.914062 -16.84375 4.914062 -15.371094 2.773438 -15.289062 C 2.394531 -15.289062 1.679688 -14.28125 1.679688 -13.734375 C 1.722656 -13.273438 2.519531 -12.769531 3.066406 -12.433594 C 3.359375 -12.222656 3.863281 -12.304688 3.90625 -12.265625 C 4.535156 -9.449219 4.789062 -6.761719 5.753906 -4.324219 C 7.390625 -0.167969 10.921875 1.09375 15.035156 -0.628906 C 15.960938 -1.007812 17.136719 -1.34375 16.800781 -2.644531 Z M 16.800781 -2.644531 "/></g></g></g><g fill="#ffffff" fill-opacity="1"><g transform="translate(274.325971, 271.025104)"><g/></g></g><g fill="#ffffff" fill-opacity="1"><g transform="translate(292.847958, 271.025104)"><g><path d="M 15.289062 -28.601562 C 16.546875 -28.476562 17.722656 -27.929688 18.984375 -27.886719 C 19.65625 -27.886719 20.664062 -28.390625 21.042969 -28.980469 C 21.589844 -29.777344 21.085938 -30.660156 20.242188 -31.164062 C 19.699219 -31.542969 19.066406 -31.792969 18.4375 -32.046875 C 14.40625 -33.472656 10.289062 -33.515625 6.132812 -32.886719 C 4.957031 -32.71875 3.695312 -32.257812 2.6875 -31.585938 C 1.261719 -30.703125 1.429688 -29.273438 2.8125 -28.351562 C 3.148438 -28.140625 3.402344 -27.636719 3.445312 -27.257812 C 3.652344 -21.796875 3.863281 -16.378906 4.03125 -10.921875 C 4.117188 -8.023438 4.03125 -5.125 4.199219 -2.269531 C 4.242188 -0.757812 5.207031 0.0429688 6.34375 0.0429688 C 7.433594 0 8.230469 -0.925781 8.316406 -2.394531 C 8.359375 -2.898438 8.316406 -3.359375 8.316406 -3.863281 C 8.316406 -6.382812 8.316406 -8.863281 8.230469 -11.382812 C 8.230469 -12.304688 8.484375 -12.640625 9.449219 -12.726562 C 12.304688 -12.976562 15.203125 -13.230469 18.058594 -13.609375 C 20.203125 -13.902344 21.292969 -15.035156 21.085938 -16.464844 C 20.875 -17.890625 19.570312 -18.523438 17.386719 -18.269531 C 14.320312 -17.933594 11.257812 -17.597656 8.191406 -17.261719 C 7.769531 -21.085938 7.351562 -24.949219 6.886719 -29.191406 C 9.742188 -29.023438 12.515625 -28.894531 15.289062 -28.601562 Z M 15.289062 -28.601562 "/></g></g></g><g fill="#ffffff" fill-opacity="1"><g transform="translate(318.005961, 271.025104)"><g><path d="M 18.816406 -12.097656 C 18.4375 -15.035156 14.53125 -18.605469 11.632812 -18.648438 C 6.382812 -18.816406 1.679688 -14.40625 1.679688 -9.199219 C 1.722656 -5.125 3.988281 -2.351562 7.980469 -1.597656 C 13.734375 -0.546875 19.613281 -6.300781 18.816406 -12.097656 Z M 10.710938 -5.710938 C 7.980469 -4.660156 5.460938 -6.425781 5.417969 -9.324219 C 5.375 -12.304688 8.316406 -15.371094 11.339844 -15.414062 C 11.800781 -15.414062 12.265625 -14.824219 12.683594 -14.488281 C 15.664062 -12.347656 15.539062 -7.601562 10.710938 -5.710938 Z M 10.710938 -5.710938 "/></g></g></g><g fill="#ffffff" fill-opacity="1"><g transform="translate(340.727953, 271.025104)"><g><path d="M 19.109375 -4.15625 C 18.691406 -8.230469 18.269531 -12.304688 17.851562 -16.378906 C 17.808594 -16.84375 17.765625 -17.472656 17.472656 -17.765625 C 17.011719 -18.226562 16.339844 -18.730469 15.75 -18.730469 C 15.203125 -18.730469 14.574219 -18.1875 14.195312 -17.683594 C 13.902344 -17.347656 13.945312 -16.757812 13.816406 -16.296875 C 13.105469 -13.734375 12.640625 -11.089844 11.550781 -8.695312 C 10.457031 -6.214844 7.855469 -6.257812 6.382812 -8.609375 C 6.007812 -9.15625 5.710938 -9.871094 5.710938 -10.5 C 5.710938 -12.726562 5.878906 -14.953125 5.921875 -17.179688 C 5.921875 -17.890625 5.753906 -18.730469 5.335938 -19.234375 C 5.082031 -19.53125 4.074219 -19.53125 3.613281 -19.320312 C 3.148438 -19.066406 2.730469 -18.394531 2.5625 -17.851562 C 1.765625 -14.992188 1.386719 -12.054688 1.972656 -9.15625 C 2.5625 -6.007812 4.492188 -4.03125 7.519531 -3.109375 C 10.164062 -2.351562 12.265625 -3.316406 14.027344 -5.292969 C 14.113281 -5.417969 14.238281 -5.460938 14.363281 -5.503906 C 14.824219 -4.285156 15.078125 -2.941406 15.707031 -1.847656 C 16.085938 -1.261719 17.050781 -0.757812 17.765625 -0.714844 C 18.816406 -0.714844 19.152344 -1.679688 19.195312 -2.6875 C 19.234375 -3.148438 19.152344 -3.652344 19.109375 -4.15625 Z M 19.109375 -4.15625 "/></g></g></g><g fill="#ffffff" fill-opacity="1"><g transform="translate(363.785942, 271.025104)"><g><path d="M 16.96875 -14.238281 C 16.296875 -15.835938 14.992188 -17.136719 13.398438 -17.683594 C 10.246094 -18.773438 8.105469 -16.925781 6.046875 -15.246094 C 5.460938 -14.742188 5.039062 -14.027344 4.324219 -13.1875 C 4.242188 -14.363281 4.285156 -15.289062 4.074219 -16.171875 C 4.03125 -16.296875 3.988281 -16.421875 3.863281 -16.546875 C 3.402344 -17.09375 2.605469 -17.09375 2.226562 -16.464844 C 2.140625 -16.378906 2.101562 -16.296875 2.058594 -16.171875 C 1.890625 -15.289062 1.890625 -14.363281 1.890625 -13.480469 C 1.804688 -10.542969 1.765625 -7.644531 1.679688 -4.703125 C 1.679688 -3.78125 2.101562 -3.109375 3.066406 -2.980469 C 4.074219 -2.8125 4.660156 -3.359375 4.957031 -4.285156 C 5.125 -4.703125 5.082031 -5.207031 5.25 -5.585938 C 6.175781 -7.8125 6.972656 -10.121094 8.148438 -12.222656 C 8.652344 -13.1875 9.828125 -13.945312 10.878906 -14.488281 C 11.929688 -15.078125 13.1875 -14.617188 13.523438 -13.441406 C 13.984375 -12.054688 14.195312 -10.542969 14.40625 -9.070312 C 14.65625 -7.222656 14.785156 -5.375 15.035156 -3.570312 C 15.203125 -2.6875 15.707031 -1.933594 16.757812 -1.972656 C 17.808594 -2.058594 18.226562 -2.8125 18.3125 -3.738281 C 18.605469 -7.351562 18.394531 -10.921875 16.96875 -14.238281 Z M 16.96875 -14.238281 "/></g></g></g><g fill="#ffffff" fill-opacity="1"><g transform="translate(386.045936, 271.025104)"><g><path d="M 18.984375 -31.121094 C 18.523438 -30.742188 17.851562 -30.449219 17.683594 -29.988281 C 17.347656 -28.894531 17.136719 -27.71875 17.050781 -26.542969 C 16.800781 -23.058594 16.675781 -19.53125 16.464844 -15.792969 C 16.171875 -16.085938 16.003906 -16.253906 15.835938 -16.378906 C 11.96875 -19.949219 6.046875 -19.152344 3.652344 -14.488281 C 2.644531 -12.515625 2.140625 -10.246094 1.765625 -8.0625 C 1.554688 -7.054688 1.933594 -5.796875 2.394531 -4.828125 C 4.074219 -1.386719 9.28125 0 12.851562 -2.015625 C 13.902344 -2.605469 14.867188 -3.277344 16.042969 -4.03125 C 16.128906 -3.023438 16.128906 -2.183594 16.253906 -1.386719 C 16.378906 -0.503906 16.925781 0.0859375 17.851562 0.125 C 18.816406 0.125 19.363281 -0.460938 19.488281 -1.386719 C 19.570312 -1.679688 19.570312 -2.015625 19.570312 -2.308594 C 19.65625 -11.425781 19.738281 -20.539062 19.738281 -29.652344 C 19.738281 -30.113281 19.234375 -30.617188 18.984375 -31.121094 Z M 13.398438 -6.679688 C 12.097656 -5.839844 10.960938 -4.621094 9.28125 -4.789062 C 5.921875 -4.828125 4.789062 -6.175781 5.375 -9.367188 C 5.585938 -10.375 5.921875 -11.382812 6.382812 -12.304688 C 7.390625 -14.449219 8.820312 -15.289062 10.835938 -15.035156 C 13.273438 -14.742188 14.53125 -13.609375 15.121094 -11.214844 C 15.121094 -11.128906 15.121094 -11.046875 15.160156 -10.960938 C 15.707031 -8.230469 15.707031 -8.191406 13.398438 -6.679688 Z M 13.398438 -6.679688 "/></g></g></g><g fill="#ffffff" fill-opacity="1"><g transform="translate(409.649924, 271.025104)"><g><path d="M 3.90625 -4.242188 C 2.476562 -4.410156 1.804688 -3.695312 1.679688 -2.140625 C 1.636719 -1.09375 2.308594 -0.335938 3.359375 -0.253906 C 4.367188 -0.210938 5.671875 -1.511719 5.753906 -2.773438 C 5.796875 -4.074219 4.789062 -4.15625 3.90625 -4.242188 Z M 3.90625 -4.242188 "/></g></g></g><g fill="#ffffff" fill-opacity="1"><g transform="translate(419.225927, 271.025104)"><g><path d="M 3.90625 -4.242188 C 2.476562 -4.410156 1.804688 -3.695312 1.679688 -2.140625 C 1.636719 -1.09375 2.308594 -0.335938 3.359375 -0.253906 C 4.367188 -0.210938 5.671875 -1.511719 5.753906 -2.773438 C 5.796875 -4.074219 4.789062 -4.15625 3.90625 -4.242188 Z M 3.90625 -4.242188 "/></g></g></g><path fill="#fed9e9" d="M 511.90625 557.78125 C 467.4375 562.746094 463.414062 566.765625 458.453125 611.234375 C 453.488281 566.765625 449.46875 562.746094 405 557.78125 C 449.46875 552.816406 453.488281 548.796875 458.453125 504.328125 C 463.414062 548.796875 467.4375 552.816406 511.90625 557.78125 " fill-opacity="1" fill-rule="nonzero"/><g clip-path="url(#9ea4bfaf46)"><path fill="#fed9e9" d="M 720.03125 330.359375 C 653.957031 337.726562 647.984375 343.722656 640.617188 409.777344 C 633.25 343.722656 627.277344 337.726562 561.203125 330.359375 C 627.277344 322.996094 633.25 317.019531 640.617188 250.945312 C 647.984375 317.019531 653.957031 322.996094 720.03125 330.359375 " fill-opacity="1" fill-rule="nonzero"/></g><path fill="#fed9e9" d="M 726.726562 550.054688 C 698.5625 553.199219 696 555.738281 692.878906 583.902344 C 689.714844 555.738281 687.175781 553.199219 659.011719 550.054688 C 687.175781 546.910156 689.714844 544.371094 692.878906 516.1875 C 696 544.371094 698.5625 546.910156 726.726562 550.054688 " fill-opacity="1" fill-rule="nonzero"/><g clip-path="url(#e0f262f684)"><path fill="#fed9e9" d="M 760.570312 687.886719 C 726.835938 691.636719 723.804688 694.691406 720.03125 728.425781 C 716.28125 694.691406 713.226562 691.636719 679.496094 687.886719 C 713.226562 684.113281 716.28125 681.058594 720.03125 647.324219 C 723.804688 681.058594 726.835938 684.113281 760.570312 687.886719 " fill-opacity="1" fill-rule="nonzero"/></g><path fill="#fed9e9" d="M 557.699219 707.222656 C 540.832031 709.109375 539.304688 710.636719 537.417969 727.503906 C 535.554688 710.636719 534.027344 709.109375 517.160156 707.222656 C 534.027344 705.359375 535.554688 703.832031 537.417969 686.964844 C 539.304688 703.832031 540.832031 705.359375 557.699219 707.222656 " fill-opacity="1" fill-rule="nonzero"/><path fill="#ffffff" d="M 565.019531 477.9375 C 565.019531 483.53125 560.484375 488.066406 554.867188 488.066406 C 549.277344 488.066406 544.738281 483.53125 544.738281 477.9375 C 544.738281 472.347656 549.277344 467.808594 554.867188 467.808594 C 560.484375 467.808594 565.019531 472.347656 565.019531 477.9375 " fill-opacity="1" fill-rule="nonzero"/><path fill="#ffffff" d="M 478.710938 357.785156 C 478.710938 363.375 474.171875 367.914062 468.582031 367.914062 C 462.988281 367.914062 458.453125 363.375 458.453125 357.785156 C 458.453125 352.191406 462.988281 347.65625 468.582031 347.65625 C 474.171875 347.65625 478.710938 352.191406 478.710938 357.785156 " fill-opacity="1" fill-rule="nonzero"/><path fill="#ffffff" d="M 772.09375 488.066406 C 772.09375 490.023438 770.5 491.59375 768.542969 491.59375 C 766.613281 491.59375 765.019531 490.023438 765.019531 488.066406 C 765.019531 486.113281 766.613281 484.542969 768.542969 484.542969 C 770.5 484.542969 772.09375 486.113281 772.09375 488.066406 " fill-opacity="1" fill-rule="nonzero"/><path fill="#ffffff" d="M 775.214844 350.460938 C 775.214844 354.503906 771.957031 357.785156 767.914062 357.785156 C 763.871094 357.785156 760.570312 354.503906 760.570312 350.460938 C 760.570312 346.417969 763.871094 343.140625 767.914062 343.140625 C 771.957031 343.140625 775.214844 346.417969 775.214844 350.460938 " fill-opacity="1" fill-rule="nonzero"/><path fill="#ffffff" d="M 552.0625 655.746094 C 552.0625 659.789062 548.78125 663.046875 544.738281 663.046875 C 540.699219 663.046875 537.417969 659.789062 537.417969 655.746094 C 537.417969 651.683594 540.699219 648.402344 544.738281 648.402344 C 548.78125 648.402344 552.0625 651.683594 552.0625 655.746094 " fill-opacity="1" fill-rule="nonzero"/><path fill="#d1daea" d="M 747.972656 593.738281 L 712.644531 622.375 L 565.535156 441.015625 L 600.863281 412.335938 L 747.972656 593.738281 " fill-opacity="1" fill-rule="nonzero"/><path fill="#9cafcc" d="M 712.644531 622.375 L 672.039062 655.296875 L 601.875 485.824219 Z M 712.644531 622.375 " fill-opacity="1" fill-rule="nonzero"/><path fill="#d1daea" d="M 747.972656 593.738281 L 788.578125 560.789062 L 637.203125 457.164062 Z M 747.972656 593.738281 " fill-opacity="1" fill-rule="nonzero"/><path fill="#9cafcc" d="M 747.972656 593.738281 L 788.578125 560.789062 L 637.203125 457.164062 Z M 747.972656 593.738281 " fill-opacity="1" fill-rule="nonzero"/><path fill="#232946" d="M 656.339844 617.363281 L 672.039062 655.296875 L 712.644531 622.375 L 687.847656 591.804688 L 656.339844 617.363281 " fill-opacity="1" fill-rule="nonzero"/><path fill="#232946" d="M 619.84375 507.96875 L 601.875 485.824219 L 613.261719 513.3125 Z M 619.84375 507.96875 " fill-opacity="1" fill-rule="nonzero"/><path fill="#232946" d="M 616.789062 521.800781 L 623.546875 538.175781 L 636.082031 528 L 625.414062 514.816406 L 616.789062 521.800781 " fill-opacity="1" fill-rule="nonzero"/><path fill="#d1daea" d="M 723.15625 563.148438 L 747.972656 593.738281 L 788.578125 560.789062 L 754.664062 537.589844 L 723.15625 563.148438 " fill-opacity="1" fill-rule="nonzero"/><path fill="#232946" d="M 723.15625 563.148438 L 747.972656 593.738281 L 788.578125 560.789062 L 754.664062 537.589844 L 723.15625 563.148438 " fill-opacity="1" fill-rule="nonzero"/><path fill="#d1daea" d="M 661.75 473.988281 L 637.203125 457.164062 L 655.171875 479.308594 Z M 661.75 473.988281 " fill-opacity="1" fill-rule="nonzero"/><path fill="#232946" d="M 661.75 473.988281 L 637.203125 457.164062 L 655.171875 479.308594 Z M 661.75 473.988281 " fill-opacity="1" fill-rule="nonzero"/><path fill="#d1daea" d="M 660.71875 486.160156 L 671.410156 499.34375 L 683.964844 489.191406 L 669.34375 479.175781 L 660.71875 486.160156 " fill-opacity="1" fill-rule="nonzero"/><path fill="#232946" d="M 660.71875 486.160156 L 671.410156 499.34375 L 683.964844 489.191406 L 669.34375 479.175781 L 660.71875 486.160156 " fill-opacity="1" fill-rule="nonzero"/><path fill="#9cafcc" d="M 538.585938 371.078125 L 538.5625 371.101562 L 538.023438 371.527344 L 537.980469 371.550781 L 568.636719 438.480469 L 582.921875 426.890625 L 583.460938 426.464844 L 597.742188 414.875 L 538.585938 371.078125 " fill-opacity="1" fill-rule="nonzero"/><path fill="#d1daea" d="M 358.742188 436.636719 C 357.574219 436.636719 355.816406 437.335938 354.871094 437.707031 C 354.667969 437.789062 354.503906 437.855469 354.378906 437.898438 L 353.738281 436.894531 C 354.085938 436.546875 354.417969 436.199219 354.746094 435.855469 C 355.5625 434.996094 356.40625 434.109375 357.457031 433.285156 C 357.640625 433.140625 357.824219 433 358.007812 432.859375 C 359.359375 431.84375 360.175781 431.15625 359.980469 429.894531 C 359.882812 429.308594 359.644531 429.195312 359.269531 429.195312 C 358.636719 429.195312 357.765625 429.589844 357.128906 429.878906 L 356.890625 429.988281 C 355.929688 430.421875 355.019531 430.902344 354.191406 431.429688 L 353.378906 430.546875 C 353.742188 430.066406 354.179688 429.625 354.601562 429.199219 C 354.792969 429.003906 354.984375 428.8125 355.167969 428.617188 C 355.371094 428.394531 355.636719 428.144531 355.925781 427.875 C 356.890625 426.960938 358.214844 425.710938 358.027344 424.707031 C 357.898438 424.035156 357.054688 423.667969 356.328125 423.667969 C 356.269531 423.667969 356.214844 423.671875 356.160156 423.675781 C 355.402344 423.738281 354.777344 424.277344 354.113281 424.851562 C 353.894531 425.035156 353.679688 425.222656 353.460938 425.390625 C 352.363281 426.234375 351.261719 427.070312 350.15625 427.902344 L 349.246094 427.140625 C 349.621094 426.386719 350.15625 425.558594 350.726562 424.679688 C 351.566406 423.390625 352.429688 422.058594 352.773438 420.96875 C 353.027344 420.148438 353.035156 419.515625 352.796875 419.191406 C 352.570312 418.886719 352.085938 418.820312 351.722656 418.820312 C 350.851562 418.820312 349.652344 419.183594 348.664062 419.75 C 345.769531 421.335938 342.871094 423.816406 340.496094 426.726562 L 339.855469 427.496094 C 337.882812 429.847656 334.792969 433.539062 333.511719 437.042969 C 328.628906 437.917969 326.070312 445.082031 319.933594 448.847656 C 301.222656 460.3125 288.152344 461.699219 280.378906 461.28125 C 288.867188 456.785156 294.230469 449.09375 297.101562 440.484375 C 300.058594 439.078125 302.226562 434.546875 302.226562 429.164062 C 302.226562 425.457031 301.199219 422.160156 299.597656 420 C 299.152344 413.457031 297.558594 407.402344 295.09375 402.816406 C 284.511719 382.988281 262.027344 372.761719 242.183594 378.21875 C 221.808594 383.964844 211.667969 394.015625 205.84375 416.421875 C 205.585938 417.425781 205.382812 418.484375 205.230469 419.582031 C 203.125 421.621094 201.699219 425.414062 201.699219 429.769531 C 201.699219 435.691406 204.320312 440.578125 207.734375 441.414062 C 210.808594 450.457031 216.304688 458.671875 223.929688 462.371094 L 221.945312 462.410156 L 219.386719 473.164062 L 221.945312 462.410156 C 216.074219 460.816406 206.871094 457.160156 195.5 450.253906 C 193.066406 448.777344 185.5625 442.554688 184.097656 440.125 C 183 438.304688 178.269531 432.730469 176.207031 431.8125 C 175.054688 431.296875 173.863281 431.425781 172.710938 431.882812 C 171.511719 428.285156 168.277344 424.425781 166.242188 422 L 165.597656 421.226562 C 163.226562 418.316406 160.328125 415.839844 157.421875 414.25 C 156.445312 413.6875 155.246094 413.324219 154.375 413.324219 C 154.011719 413.324219 153.527344 413.390625 153.300781 413.695312 C 153.0625 414.019531 153.070312 414.652344 153.320312 415.46875 C 153.667969 416.5625 154.53125 417.894531 155.367188 419.183594 C 155.9375 420.0625 156.476562 420.890625 156.851562 421.644531 L 155.9375 422.40625 C 154.832031 421.574219 153.730469 420.738281 152.632812 419.894531 C 152.417969 419.726562 152.203125 419.539062 151.984375 419.355469 C 151.320312 418.78125 150.695312 418.246094 149.9375 418.179688 C 149.882812 418.175781 149.824219 418.175781 149.769531 418.175781 C 149.039062 418.175781 148.195312 418.539062 148.070312 419.210938 C 147.878906 420.214844 149.207031 421.464844 150.171875 422.378906 C 150.457031 422.652344 150.722656 422.898438 150.929688 423.125 C 151.109375 423.316406 151.304688 423.511719 151.496094 423.707031 C 151.917969 424.128906 152.355469 424.570312 152.71875 425.054688 L 151.902344 425.9375 C 151.078125 425.410156 150.171875 424.925781 149.207031 424.492188 L 148.964844 424.386719 C 148.332031 424.097656 147.457031 423.699219 146.824219 423.699219 C 146.449219 423.699219 146.214844 423.816406 146.117188 424.394531 C 145.917969 425.660156 146.734375 426.347656 148.085938 427.367188 C 148.269531 427.503906 148.457031 427.644531 148.640625 427.789062 C 149.6875 428.613281 150.53125 429.5 151.351562 430.359375 C 151.679688 430.703125 152.011719 431.050781 152.359375 431.398438 L 151.71875 432.402344 C 151.59375 432.359375 151.425781 432.292969 151.222656 432.210938 C 150.277344 431.839844 148.519531 431.144531 147.355469 431.144531 C 146.535156 431.144531 146.535156 431.46875 146.535156 431.730469 C 146.535156 432.410156 148.09375 433.710938 149.234375 434.65625 C 150.25 435.503906 151.210938 436.304688 151.625 436.996094 C 152.050781 437.652344 152.402344 438.3125 152.746094 438.953125 C 153.472656 440.320312 154.160156 441.609375 155.476562 442.660156 C 156.371094 443.414062 158.390625 444.941406 160.613281 445.574219 C 159.867188 447.742188 159.625 449.960938 160.242188 452.03125 C 161.824219 457.320312 166.289062 462.574219 169.648438 466.863281 C 173.207031 471.410156 177.441406 475.554688 181.671875 479.472656 C 193.539062 490.421875 214.667969 486.699219 214.671875 492.996094 L 214.667969 492.996094 C 214.667969 495.773438 216.179688 521.632812 220.375 540.679688 C 220.695312 542.144531 221.460938 543.175781 222.496094 543.921875 L 222.488281 543.925781 C 228.351562 562.324219 236.441406 576.109375 240.703125 580.675781 C 253.175781 594.363281 259.648438 592.957031 277.90625 589.609375 C 288.835938 601.335938 301.386719 604.949219 314.402344 608.082031 C 317.207031 608.757812 322.65625 609.835938 324.753906 611.742188 C 327.238281 614.011719 323.429688 618.628906 325.8125 621.804688 C 329.464844 627.890625 334.027344 625.457031 336.15625 620.894531 C 338.285156 616.9375 347.714844 598.6875 342.242188 595.644531 C 339.734375 594.25 336.832031 593.652344 334.320312 592.148438 C 332.035156 590.777344 329.792969 589.304688 327.539062 587.878906 C 322.933594 584.976562 318.398438 581.640625 314.945312 577.394531 C 314.496094 576.839844 314.070312 576.273438 313.675781 575.691406 C 314.214844 575.792969 314.535156 575.847656 314.535156 575.847656 L 315.148438 575.847656 C 315.078125 576.230469 315 576.617188 314.914062 577 C 315.90625 576.757812 316.835938 576.628906 317.605469 576.695312 C 317.777344 576.714844 317.941406 576.738281 318.09375 576.785156 C 318.140625 576.554688 318.175781 576.324219 318.214844 576.089844 C 319.464844 576.761719 320.8125 578.480469 321.488281 579.804688 C 322.300781 581.398438 323.144531 583.046875 324.84375 583.523438 L 324.902344 583.542969 C 326.109375 584.019531 327.207031 584.261719 328.15625 584.261719 C 329.433594 584.261719 330.429688 583.824219 331.121094 582.96875 C 332.136719 581.707031 332.429688 579.550781 331.90625 577.160156 C 330.175781 566.335938 326.609375 553.691406 322.261719 553.691406 C 322.15625 553.691406 322.046875 553.699219 321.941406 553.714844 C 320.613281 553.90625 319.335938 554.28125 317.984375 554.679688 C 317.363281 554.863281 316.085938 555.050781 315.441406 555.21875 C 315.472656 555.304688 315.488281 555.390625 315.515625 555.476562 C 315.4375 555.246094 315.359375 555.015625 315.277344 554.785156 C 314.617188 554.945312 313.945312 555.074219 313.261719 555.148438 C 312.921875 555.183594 312.585938 555.21875 312.246094 555.25 C 312.324219 555.46875 312.394531 555.6875 312.472656 555.90625 C 311.652344 555.984375 310.1875 556.058594 309.363281 556.128906 C 309.449219 556.828125 309.3125 557.539062 309.015625 558.25 C 307.992188 550.335938 307.238281 541.359375 307.238281 535.910156 L 307.234375 535.914062 C 307.761719 535.492188 308.210938 535.007812 308.488281 534.433594 C 309.609375 532.117188 308.054688 528.683594 307.203125 526.523438 C 305.546875 522.339844 304.714844 518.140625 303.828125 513.753906 C 302.933594 509.339844 301.503906 505.042969 300.8125 500.589844 C 300.140625 496.257812 299.765625 491.421875 299.953125 487.035156 C 314.417969 484.707031 320.644531 483.535156 332.054688 474.566406 C 337.945312 469.941406 337.882812 469.621094 342.695312 463.867188 C 346.386719 459.414062 351.765625 453.734375 349.875 448.75 C 350.175781 448.523438 350.433594 448.316406 350.636719 448.144531 C 351.941406 447.101562 352.625 445.8125 353.355469 444.445312 C 353.695312 443.808594 354.046875 443.144531 354.460938 442.507812 C 354.890625 441.800781 355.847656 441 356.863281 440.152344 C 358.003906 439.207031 359.566406 437.90625 359.566406 437.226562 C 359.5625 436.960938 359.5625 436.636719 358.742188 436.636719 " fill-opacity="1" fill-rule="nonzero"/><path fill="#9cafcc" d="M 314.914062 577 C 314.839844 577.019531 314.757812 577.042969 314.6875 577.0625 L 314.679688 577.054688 C 314.757812 577.035156 314.839844 577.019531 314.914062 577 " fill-opacity="1" fill-rule="nonzero"/><path fill="#9cafcc" d="M 321.089844 580.371094 C 320.265625 578.769531 319.546875 577.199219 318.09375 576.789062 L 318.09375 576.785156 C 319.550781 577.1875 320.277344 578.761719 321.089844 580.371094 " fill-opacity="1" fill-rule="nonzero"/><path fill="#9cafcc" d="M 192.980469 448.453125 C 190.695312 453.914062 188.109375 459.238281 184.550781 464.011719 C 182.507812 466.753906 180 469.1875 177.398438 471.402344 C 176.707031 471.992188 175.964844 472.59375 175.179688 473.160156 C 176.023438 474.039062 176.882812 474.898438 177.753906 475.75 C 177.878906 475.65625 178.011719 475.566406 178.136719 475.472656 C 181.207031 473.15625 184.019531 470.441406 186.457031 467.472656 C 190.605469 462.414062 193.519531 456.574219 196.046875 450.582031 C 195.863281 450.46875 195.6875 450.363281 195.5 450.253906 C 194.910156 449.894531 194.015625 449.25 192.980469 448.453125 " fill-opacity="1" fill-rule="nonzero"/><path fill="#9cafcc" d="M 308.683594 555.570312 C 309.328125 561.03125 310.117188 566.238281 310.90625 569.785156 C 311.617188 572.480469 312.972656 574.886719 314.683594 577.058594 C 314.761719 577.039062 314.839844 577.019531 314.914062 577 C 316.644531 569.632812 314.769531 562.316406 312.246094 555.25 C 311.058594 555.367188 309.871094 555.476562 308.683594 555.570312 " fill-opacity="1" fill-rule="nonzero"/><path fill="#9cafcc" d="M 324.679688 584.109375 C 331.398438 586.757812 333.597656 582.019531 332.507812 577.0625 C 331.796875 572.59375 328.175781 552.207031 321.855469 553.109375 C 319.625 553.429688 317.496094 554.265625 315.28125 554.785156 C 317.777344 561.945312 319.59375 569.328125 318.089844 576.792969 C 321.003906 577.601562 320.984375 583.074219 324.679688 584.109375 " fill-opacity="1" fill-rule="nonzero"/><path fill="#9cafcc" d="M 256.699219 554.507812 L 256.109375 554.664062 C 261.367188 574.492188 269.335938 581.96875 275.738281 587.980469 C 276.355469 588.558594 276.953125 589.121094 277.535156 589.679688 C 277.65625 589.65625 277.777344 589.632812 277.902344 589.609375 L 278.113281 589.390625 C 277.484375 588.78125 276.832031 588.164062 276.152344 587.53125 C 269.808594 581.578125 261.910156 574.167969 256.699219 554.507812 " fill-opacity="1" fill-rule="nonzero"/><path fill="#9cafcc" d="M 334.320312 592.148438 C 333.21875 591.484375 332.128906 590.800781 331.039062 590.109375 C 330.886719 593.585938 330.132812 596.980469 328.582031 600.207031 C 326.816406 603.871094 324.253906 607.054688 321.441406 609.976562 C 322.792969 610.472656 323.992188 611.050781 324.753906 611.742188 C 324.757812 611.75 324.765625 611.757812 324.769531 611.761719 C 327.496094 608.828125 329.953125 605.648438 331.746094 602.054688 C 333.289062 598.957031 334.195312 595.652344 334.554688 592.273438 C 334.476562 592.230469 334.394531 592.191406 334.320312 592.148438 " fill-opacity="1" fill-rule="nonzero"/><path fill="#9cafcc" d="M 328.691406 477.085938 C 329.65625 476.398438 330.660156 475.652344 331.703125 474.839844 C 329.054688 472.625 326.683594 470.105469 324.671875 467.644531 C 320.933594 463.066406 317.359375 456.957031 316.683594 450.765625 C 315.527344 451.425781 314.390625 452.046875 313.277344 452.632812 C 314.398438 458.96875 317.964844 465.027344 321.828125 469.917969 C 323.8125 472.429688 326.128906 474.890625 328.691406 477.085938 " fill-opacity="1" fill-rule="nonzero"/><path fill="#9cafcc" d="M 308.089844 528.804688 C 307.867188 529.226562 307.640625 529.644531 307.417969 530.066406 C 306.636719 531.53125 305.894531 532.285156 304.394531 533.078125 C 302.351562 534.15625 300.222656 534.792969 297.960938 535.238281 C 288.796875 537.054688 279.613281 538.914062 270.410156 540.542969 C 264.5625 541.578125 258.675781 542.359375 252.757812 542.734375 C 252.136719 542.777344 251.515625 542.8125 250.894531 542.84375 C 248.5 542.960938 246.097656 543.015625 243.691406 542.980469 C 238.953125 542.914062 234.230469 542.488281 229.542969 541.792969 C 226.828125 541.390625 223.171875 541.3125 220.988281 539.433594 C 220.546875 539.054688 220.320312 538.613281 220.175781 538.058594 C 220.074219 537.671875 219.882812 537.382812 219.648438 537.171875 C 219.878906 538.363281 220.121094 539.535156 220.375 540.679688 C 220.695312 542.144531 221.460938 543.171875 222.496094 543.921875 C 222.738281 544.101562 223 544.261719 223.277344 544.410156 C 223.300781 544.417969 223.324219 544.425781 223.351562 544.433594 C 226.996094 545.382812 230.941406 545.71875 234.671875 546.109375 C 243.746094 547.058594 252.878906 546.691406 261.910156 545.53125 C 270.980469 544.367188 279.929688 542.464844 288.882812 540.644531 C 293.433594 539.71875 298.242188 539.269531 302.664062 537.820312 C 304.421875 537.242188 306.183594 536.382812 307.730469 535.367188 C 307.816406 535.3125 307.886719 535.253906 307.964844 535.199219 C 308.167969 534.960938 308.355469 534.707031 308.488281 534.429688 C 309.261719 532.828125 308.757812 530.6875 308.089844 528.804688 " fill-opacity="1" fill-rule="nonzero"/><path fill="#9cafcc" d="M 223.636719 467.738281 C 226.59375 468.925781 230.050781 469.433594 232.773438 469.734375 C 235.738281 470.128906 238.8125 470.425781 241.917969 470.609375 C 242.527344 470.648438 243.136719 470.671875 243.75 470.699219 C 248.523438 470.914062 253.324219 470.855469 257.867188 470.429688 C 263.820312 469.816406 273.222656 468.363281 278.871094 465.769531 C 279.832031 465.289062 280.957031 464.636719 282.007812 463.910156 C 283.621094 475.507812 290.390625 485.921875 300 492.738281 C 299.917969 491.175781 299.890625 489.621094 299.925781 488.101562 C 291.714844 481.457031 286.246094 471.816406 285.414062 461.265625 C 285.261719 461.273438 285.105469 461.28125 284.953125 461.289062 C 285.789062 460.160156 286.070312 458.710938 285.164062 458.164062 C 284.800781 457.945312 284.246094 457.867188 283.457031 458.019531 C 282.375 458.230469 281.347656 458.90625 280.367188 459.324219 C 279.40625 459.734375 278.453125 460.160156 277.496094 460.578125 C 271.699219 462.5625 262.996094 464.546875 256.738281 464.699219 C 252.007812 464.851562 247.273438 464.851562 242.542969 464.699219 C 238.421875 464.546875 234.148438 464.394531 230.027344 463.628906 C 227.152344 463.269531 224.800781 462.660156 222.222656 461.304688 C 221.851562 461.109375 221.40625 460.832031 220.949219 460.628906 C 220.136719 460.265625 219.296875 460.136719 218.816406 461.132812 C 218.769531 461.230469 218.742188 461.324219 218.703125 461.421875 C 218.179688 462.796875 218.558594 464.269531 219.648438 465.308594 C 220.058594 465.699219 220.511719 466.058594 221 466.382812 L 219.914062 470.949219 C 219.664062 474.390625 218.863281 477.824219 217.789062 480.9375 C 217.59375 481.5 217.375 482.066406 217.132812 482.632812 L 214.824219 492.34375 C 217.574219 489.863281 219.589844 486.398438 220.96875 482.867188 C 222.761719 478.277344 223.820312 472.898438 223.636719 467.738281 " fill-opacity="1" fill-rule="nonzero"/><path fill="#9cafcc" d="M 260.875 481.148438 C 261.789062 481.148438 262.53125 481.890625 262.53125 482.808594 C 262.53125 483.722656 261.789062 484.464844 260.875 484.464844 C 259.957031 484.464844 259.214844 483.722656 259.214844 482.808594 C 259.214844 481.890625 259.957031 481.148438 260.875 481.148438 " fill-opacity="1" fill-rule="nonzero"/><path fill="#9cafcc" d="M 266.976562 480.539062 C 267.894531 480.539062 268.636719 481.28125 268.636719 482.195312 C 268.636719 483.113281 267.894531 483.855469 266.976562 483.855469 C 266.0625 483.855469 265.320312 483.113281 265.320312 482.195312 C 265.320312 481.28125 266.0625 480.539062 266.976562 480.539062 " fill-opacity="1" fill-rule="nonzero"/><path fill="#9cafcc" d="M 272.472656 479.929688 C 273.390625 479.929688 274.132812 480.671875 274.132812 481.585938 C 274.132812 482.503906 273.390625 483.246094 272.472656 483.246094 C 271.558594 483.246094 270.816406 482.503906 270.816406 481.585938 C 270.816406 480.671875 271.558594 479.929688 272.472656 479.929688 " fill-opacity="1" fill-rule="nonzero"/><path fill="#9cafcc" d="M 287.222656 442.46875 C 289.796875 442.46875 295.160156 440.945312 295.160156 440.945312 C 291.257812 440.945312 288.09375 435.667969 288.09375 429.160156 C 288.09375 422.65625 291.257812 417.378906 295.160156 417.378906 C 295.160156 417.378906 289.9375 415.855469 287.222656 415.855469 C 282.816406 415.855469 279.242188 421.8125 279.242188 429.160156 C 279.242188 436.511719 282.816406 442.46875 287.222656 442.46875 " fill-opacity="1" fill-rule="nonzero"/><path fill="#9cafcc" d="M 236.53125 460.636719 C 232.878906 459.992188 228.203125 458.40625 225.230469 456.117188 C 222.652344 454.125 219.921875 451.597656 217.996094 448.957031 C 214.5 444.164062 212.664062 438.402344 211.765625 432.589844 C 210.96875 427.453125 209.8125 420.308594 212.195312 415.46875 C 214.542969 410.691406 221.664062 407.46875 226.679688 406.648438 C 233.539062 405.523438 243.691406 461.898438 236.53125 460.636719 " fill-opacity="1" fill-rule="nonzero"/><path fill="#fed9e9" d="M 241.917969 470.609375 C 242.175781 487.71875 245.050781 520.050781 250.894531 542.84375 C 251.515625 542.816406 252.136719 542.777344 252.757812 542.734375 C 246.902344 520.121094 244.019531 487.820312 243.75 470.699219 C 243.136719 470.671875 242.527344 470.648438 241.917969 470.609375 " fill-opacity="1" fill-rule="nonzero"/><path fill="#fed9e9" d="M 275.984375 489.394531 C 275.320312 490.542969 273.992188 490.742188 272.804688 490.910156 C 269.828125 491.324219 266.875 491.851562 263.878906 492.105469 C 261.113281 492.34375 258.226562 492.507812 257.222656 489.382812 C 256.5 487.140625 256.402344 483.863281 257 481.589844 C 257.589844 479.332031 260.003906 479.070312 261.964844 478.855469 C 265.066406 478.511719 268.199219 478.105469 271.324219 478.125 C 273.671875 478.128906 275.777344 478.027344 275.996094 481.007812 C 276.128906 482.882812 276.628906 484.703125 276.636719 486.59375 C 276.644531 487.570312 276.476562 488.539062 275.984375 489.394531 Z M 272.273438 477.496094 C 271.957031 477.503906 271.640625 477.515625 271.324219 477.515625 C 267.746094 477.492188 264.082031 477.90625 260.542969 478.425781 C 258.457031 478.730469 256.890625 479.59375 256.335938 481.71875 C 255.984375 483.050781 256.09375 484.496094 256.144531 485.855469 C 256.195312 487.324219 256.332031 488.804688 256.859375 490.1875 C 257.878906 492.878906 260.566406 492.898438 263.035156 492.777344 C 266.570312 492.601562 270.0625 491.886719 273.5625 491.414062 C 275.785156 491.117188 276.929688 489.617188 277.203125 487.480469 C 277.5 485.132812 276.773438 482.707031 276.550781 480.378906 C 276.324219 477.996094 274.324219 477.449219 272.273438 477.496094 " fill-opacity="1" fill-rule="nonzero"/><path fill="#fed9e9" d="M 260.875 486.03125 C 261.789062 486.03125 262.53125 486.773438 262.53125 487.691406 C 262.53125 488.605469 261.789062 489.347656 260.875 489.347656 C 259.957031 489.347656 259.214844 488.605469 259.214844 487.691406 C 259.214844 486.773438 259.957031 486.03125 260.875 486.03125 " fill-opacity="1" fill-rule="nonzero"/><path fill="#fed9e9" d="M 266.976562 485.421875 C 267.894531 485.421875 268.636719 486.164062 268.636719 487.078125 C 268.636719 487.996094 267.894531 488.738281 266.976562 488.738281 C 266.0625 488.738281 265.320312 487.996094 265.320312 487.078125 C 265.320312 486.164062 266.0625 485.421875 266.976562 485.421875 " fill-opacity="1" fill-rule="nonzero"/><path fill="#fed9e9" d="M 272.472656 484.8125 C 273.390625 484.8125 274.132812 485.554688 274.132812 486.46875 C 274.132812 487.386719 273.390625 488.128906 272.472656 488.128906 C 271.558594 488.128906 270.816406 487.386719 270.816406 486.46875 C 270.816406 485.554688 271.558594 484.8125 272.472656 484.8125 " fill-opacity="1" fill-rule="nonzero"/><path fill="#fed9e9" d="M 260.773438 454.9375 C 264.746094 452.320312 267.746094 448.796875 270.167969 444.707031 C 270.289062 444.503906 270.410156 444.296875 270.53125 444.089844 C 270.605469 443.960938 270.675781 443.828125 270.75 443.695312 C 270.90625 443.417969 271.054688 443.136719 271.207031 442.855469 C 271.496094 442.308594 271.78125 441.757812 272.054688 441.195312 C 272.90625 439.441406 273.539062 437.414062 273.992188 435.464844 C 271.804688 435.21875 267.9375 431.921875 267.519531 435.773438 C 261.527344 433.609375 256.445312 419.867188 256.445312 419.867188 C 256.445312 419.867188 236.230469 420.957031 230.445312 412.722656 C 227.234375 415.996094 223.753906 422.652344 224.671875 431.5625 C 224.835938 433.1875 226.019531 435.972656 225.746094 438.035156 C 225.488281 439.988281 225.097656 441.890625 224.695312 443.28125 C 223.199219 448.449219 224.398438 453.632812 227.699219 457.675781 C 230.445312 459.128906 233.777344 460.152344 236.53125 460.636719 C 243.691406 461.898438 251.539062 459.742188 257.941406 456.5625 C 258.9375 456.070312 259.882812 455.527344 260.773438 454.9375 " fill-opacity="1" fill-rule="nonzero"/><path fill="#fed9e9" d="M 155.367188 423.195312 C 152.546875 426.277344 157.707031 433.046875 164.914062 432.175781 C 172.113281 431.308594 168.078125 424.367188 168.078125 424.367188 C 168.078125 424.367188 158.1875 420.113281 155.367188 423.195312 " fill-opacity="1" fill-rule="nonzero"/><path fill="#fed9e9" d="M 351.164062 429.1875 C 349.09375 427.699219 339.71875 427.875 337.964844 430.015625 C 336.214844 432.160156 336.066406 438.101562 343.566406 437.710938 C 351.066406 437.320312 354.472656 431.574219 351.164062 429.1875 " fill-opacity="1" fill-rule="nonzero"/><g clip-path="url(#dbe494045d)"><path fill="#232946" d="M 167.394531 424.941406 C 167.433594 424.945312 167.464844 424.980469 167.464844 425.015625 C 167.464844 425.054688 167.429688 425.085938 167.394531 425.085938 C 167.394531 425.085938 167.011719 425.097656 166.347656 425.117188 C 166.015625 425.113281 165.617188 425.160156 165.148438 425.121094 C 164.679688 425.089844 164.15625 425.054688 163.578125 425.019531 C 162.996094 424.953125 162.378906 424.742188 161.765625 424.542969 C 161.144531 424.335938 160.5 424.121094 159.832031 423.960938 C 159.164062 423.8125 158.457031 423.753906 157.820312 423.964844 C 157.480469 424.097656 157.1875 424.238281 156.925781 424.449219 C 156.664062 424.664062 156.453125 424.929688 156.320312 425.226562 C 156.03125 425.816406 156.136719 426.535156 156.53125 427.078125 C 156.707031 427.351562 156.984375 427.589844 157.234375 427.769531 C 157.546875 427.953125 157.847656 428.171875 158.15625 428.316406 C 158.46875 428.453125 158.765625 428.601562 159.074219 428.726562 C 159.390625 428.84375 159.699219 428.957031 159.996094 429.066406 C 160.617188 429.246094 161.199219 429.421875 161.753906 429.535156 C 162.300781 429.671875 162.816406 429.757812 163.261719 429.855469 C 163.71875 429.9375 164.113281 430.007812 164.441406 430.066406 C 165.09375 430.171875 165.46875 430.238281 165.46875 430.238281 C 165.503906 430.242188 165.53125 430.277344 165.523438 430.316406 C 165.519531 430.347656 165.488281 430.375 165.453125 430.371094 C 165.453125 430.371094 165.074219 430.34375 164.410156 430.292969 C 164.078125 430.257812 163.675781 430.214844 163.214844 430.164062 C 162.757812 430.097656 162.234375 430.046875 161.671875 429.929688 C 161.105469 429.835938 160.503906 429.683594 159.859375 429.523438 C 159.542969 429.421875 159.21875 429.320312 158.886719 429.214844 C 158.554688 429.101562 158.222656 428.933594 157.882812 428.789062 C 157.546875 428.632812 157.257812 428.425781 156.9375 428.246094 C 156.589844 428.007812 156.296875 427.753906 156.054688 427.40625 C 155.816406 427.070312 155.636719 426.675781 155.574219 426.246094 C 155.515625 425.816406 155.582031 425.367188 155.761719 424.976562 C 155.941406 424.578125 156.226562 424.246094 156.550781 423.984375 C 156.71875 423.859375 156.890625 423.742188 157.085938 423.648438 C 157.289062 423.535156 157.425781 423.503906 157.636719 423.414062 C 158.433594 423.164062 159.242188 423.253906 159.953125 423.421875 C 160.667969 423.59375 161.316406 423.855469 161.925781 424.082031 C 162.539062 424.308594 163.09375 424.527344 163.636719 424.617188 C 164.195312 424.679688 164.707031 424.742188 165.160156 424.800781 C 165.613281 424.871094 166.023438 424.855469 166.351562 424.878906 C 167.015625 424.917969 167.394531 424.941406 167.394531 424.941406 Z M 157.726562 413.71875 C 155.589844 412.496094 151.519531 411.683594 152.742188 415.652344 C 153.351562 417.585938 155.390625 420.085938 156.304688 421.914062 C 155.199219 421.085938 154.101562 420.25 153.007812 419.410156 C 152.085938 418.699219 151.226562 417.675781 149.988281 417.574219 C 148.992188 417.488281 147.679688 417.992188 147.46875 419.097656 C 147.15625 420.765625 149.5 422.480469 150.484375 423.539062 C 151.054688 424.152344 151.730469 424.75 152.230469 425.421875 C 151.34375 424.855469 150.414062 424.367188 149.453125 423.9375 C 148.230469 423.390625 145.871094 422.167969 145.515625 424.300781 C 145.210938 426.234375 146.835938 427.152344 148.261719 428.269531 C 149.683594 429.390625 150.703125 430.609375 151.925781 431.832031 C 150.804688 431.425781 145.921875 429.1875 145.921875 431.730469 C 145.921875 433.359375 150.195312 435.800781 151.113281 437.328125 C 152.433594 439.363281 153.046875 441.5 155.082031 443.128906 C 156.488281 444.308594 158.425781 445.582031 160.425781 446.160156 C 161.613281 442.191406 164.59375 438.347656 167.226562 435.945312 C 168.761719 434.535156 170.976562 432.355469 173.285156 431.6875 C 171.925781 427.59375 168.117188 423.3125 166.070312 420.84375 C 163.832031 418.09375 160.882812 415.449219 157.726562 413.71875 " fill-opacity="1" fill-rule="nonzero"/></g><g clip-path="url(#cc6fb217b4)"><path fill="#232946" d="M 350.519531 431.742188 C 350.460938 432.171875 350.28125 432.566406 350.039062 432.902344 C 349.796875 433.25 349.503906 433.503906 349.15625 433.742188 C 348.835938 433.925781 348.546875 434.128906 348.214844 434.285156 C 347.871094 434.429688 347.542969 434.597656 347.210938 434.710938 C 346.875 434.816406 346.550781 434.917969 346.234375 435.019531 C 345.59375 435.179688 344.988281 435.332031 344.421875 435.425781 C 343.863281 435.542969 343.339844 435.59375 342.878906 435.660156 C 342.417969 435.707031 342.015625 435.75 341.6875 435.789062 C 341.019531 435.839844 340.640625 435.867188 340.640625 435.867188 C 340.605469 435.871094 340.574219 435.84375 340.570312 435.804688 C 340.566406 435.769531 340.59375 435.738281 340.625 435.730469 C 340.625 435.730469 341 435.667969 341.65625 435.5625 C 341.980469 435.503906 342.378906 435.433594 342.832031 435.351562 C 343.28125 435.253906 343.792969 435.167969 344.339844 435.03125 C 344.894531 434.914062 345.480469 434.742188 346.097656 434.5625 C 346.398438 434.453125 346.707031 434.339844 347.023438 434.222656 C 347.332031 434.097656 347.625 433.949219 347.9375 433.8125 C 348.246094 433.667969 348.550781 433.445312 348.863281 433.265625 C 349.109375 433.085938 349.390625 432.847656 349.566406 432.574219 C 349.957031 432.03125 350.066406 431.3125 349.777344 430.722656 C 349.644531 430.425781 349.429688 430.160156 349.171875 429.945312 C 348.910156 429.734375 348.617188 429.59375 348.277344 429.460938 C 347.636719 429.25 346.929688 429.304688 346.265625 429.457031 C 345.59375 429.613281 344.949219 429.832031 344.328125 430.039062 C 343.714844 430.238281 343.097656 430.449219 342.515625 430.515625 C 341.941406 430.550781 341.414062 430.585938 340.945312 430.613281 C 340.480469 430.652344 340.078125 430.609375 339.746094 430.613281 C 339.082031 430.59375 338.703125 430.582031 338.703125 430.582031 C 338.664062 430.582031 338.628906 430.546875 338.628906 430.507812 C 338.632812 430.472656 338.664062 430.441406 338.703125 430.4375 C 338.703125 430.4375 339.082031 430.417969 339.742188 430.378906 C 340.074219 430.351562 340.480469 430.367188 340.933594 430.296875 C 341.386719 430.242188 341.898438 430.179688 342.457031 430.113281 C 343.003906 430.023438 343.554688 429.808594 344.171875 429.582031 C 344.777344 429.355469 345.425781 429.09375 346.140625 428.921875 C 346.851562 428.753906 347.660156 428.664062 348.460938 428.914062 C 348.671875 429 348.808594 429.03125 349.011719 429.144531 C 349.207031 429.238281 349.375 429.359375 349.542969 429.480469 C 349.871094 429.746094 350.152344 430.078125 350.332031 430.472656 C 350.511719 430.863281 350.578125 431.3125 350.519531 431.742188 Z M 354.171875 437.324219 C 355.390625 436.105469 356.410156 434.882812 357.835938 433.765625 C 359.257812 432.644531 360.886719 431.730469 360.582031 429.796875 C 360.226562 427.660156 357.863281 428.882812 356.640625 429.429688 C 355.679688 429.859375 354.75 430.351562 353.863281 430.914062 C 354.367188 430.246094 355.042969 429.644531 355.613281 429.035156 C 356.597656 427.976562 358.941406 426.261719 358.625 424.59375 C 358.417969 423.484375 357.105469 422.984375 356.109375 423.066406 C 354.871094 423.167969 354.011719 424.195312 353.085938 424.90625 C 351.992188 425.746094 350.894531 426.582031 349.789062 427.410156 C 350.703125 425.578125 352.742188 423.082031 353.355469 421.144531 C 354.574219 417.179688 350.507812 417.992188 348.367188 419.210938 C 345.214844 420.945312 342.261719 423.585938 340.023438 426.335938 C 337.96875 428.816406 334.144531 433.117188 332.796875 437.21875 C 334.394531 436.710938 336.226562 436.878906 338.535156 438.125 C 341.824219 439.898438 344.449219 443.140625 347.34375 445.472656 C 348.867188 446.699219 349.71875 448.007812 350.070312 449.363281 C 350.40625 449.117188 350.722656 448.867188 351.015625 448.621094 C 353.050781 446.992188 353.660156 444.855469 354.980469 442.820312 C 355.898438 441.292969 360.171875 438.851562 360.171875 437.222656 C 360.171875 434.679688 355.289062 436.917969 354.171875 437.324219 " fill-opacity="1" fill-rule="nonzero"/></g><path fill="#232946" d="M 267.589844 415.292969 C 261.828125 411.417969 253.484375 408.511719 247.566406 407.382812 C 240.714844 406.089844 233.539062 405.523438 226.679688 406.648438 C 225.058594 406.914062 223.214844 407.433594 221.382812 408.171875 C 218.722656 410.550781 216.890625 414.433594 216.929688 417.894531 C 216.953125 419.957031 217.535156 421.96875 218.496094 423.785156 C 218.761719 424.285156 222.261719 429.027344 222.332031 428.941406 C 219.882812 431.96875 222.714844 435.738281 225.746094 438.035156 C 226.019531 435.972656 226.148438 433.847656 225.980469 432.222656 C 225.066406 423.308594 227.726562 417.699219 230.9375 414.425781 C 236.726562 422.660156 245.988281 423.238281 255.515625 421.960938 C 255.398438 427.285156 262.222656 435.703125 268.214844 437.863281 C 269.5 436.117188 271.804688 435.21875 273.992188 435.464844 C 274.074219 435.117188 274.152344 434.765625 274.222656 434.425781 C 275.636719 427.46875 273.726562 419.421875 267.589844 415.292969 " fill-opacity="1" fill-rule="nonzero"/><path fill="#232946" d="M 272.578125 438.230469 C 272.578125 438.230469 272.457031 438.273438 272.253906 438.363281 C 272.148438 438.402344 272.035156 438.488281 271.894531 438.578125 C 271.746094 438.667969 271.613281 438.792969 271.46875 438.9375 C 271.316406 439.070312 271.199219 439.257812 271.054688 439.4375 C 270.9375 439.632812 270.796875 439.832031 270.699219 440.0625 C 270.59375 440.289062 270.488281 440.523438 270.414062 440.769531 C 270.328125 441.015625 270.273438 441.273438 270.210938 441.527344 C 270.113281 442.042969 270.046875 442.5625 270.039062 443.050781 C 270.027344 443.539062 270.058594 443.992188 270.113281 444.375 C 270.128906 444.492188 270.148438 444.601562 270.167969 444.707031 C 270.289062 444.5 270.410156 444.296875 270.527344 444.089844 C 270.53125 443.984375 270.535156 443.886719 270.542969 443.777344 C 270.558594 443.773438 270.574219 443.773438 270.589844 443.765625 C 270.589844 443.765625 270.648438 443.738281 270.75 443.695312 C 270.90625 443.417969 271.054688 443.136719 271.207031 442.855469 C 271.128906 442.894531 271.050781 442.929688 270.984375 442.964844 C 270.847656 443.039062 270.695312 443.078125 270.589844 443.117188 C 270.589844 443.105469 270.589844 443.09375 270.59375 443.082031 C 270.636719 442.621094 270.703125 442.132812 270.804688 441.652344 C 270.863281 441.417969 270.90625 441.175781 270.980469 440.949219 C 271.046875 440.71875 271.117188 440.496094 271.207031 440.285156 C 271.285156 440.070312 271.386719 439.882812 271.472656 439.691406 C 271.585938 439.527344 271.664062 439.335938 271.78125 439.207031 C 271.890625 439.0625 271.984375 438.925781 272.089844 438.832031 C 272.1875 438.730469 272.269531 438.628906 272.371094 438.570312 C 272.546875 438.4375 272.648438 438.355469 272.648438 438.355469 C 272.671875 438.335938 272.683594 438.300781 272.671875 438.269531 C 272.660156 438.234375 272.617188 438.214844 272.578125 438.230469 " fill-opacity="1" fill-rule="nonzero"/><path fill="#232946" d="M 238.035156 443.957031 C 238.105469 443.769531 238.226562 443.613281 238.34375 443.464844 C 238.410156 443.398438 238.480469 443.332031 238.542969 443.265625 C 238.613281 443.203125 238.695312 443.15625 238.765625 443.101562 C 238.910156 442.980469 239.082031 442.941406 239.226562 442.855469 C 239.378906 442.792969 239.527344 442.765625 239.65625 442.714844 C 239.785156 442.667969 239.917969 442.667969 240.019531 442.644531 C 240.222656 442.605469 240.339844 442.585938 240.339844 442.585938 C 240.339844 442.585938 240.222656 442.5625 240.019531 442.523438 C 239.914062 442.515625 239.796875 442.46875 239.644531 442.484375 C 239.496094 442.496094 239.320312 442.484375 239.132812 442.523438 C 238.957031 442.574219 238.738281 442.589844 238.550781 442.703125 C 238.453125 442.753906 238.347656 442.800781 238.246094 442.863281 C 238.148438 442.933594 238.054688 443.011719 237.960938 443.089844 C 237.792969 443.265625 237.605469 443.460938 237.503906 443.703125 C 237.375 443.9375 237.316406 444.199219 237.273438 444.457031 C 237.265625 444.589844 237.25 444.726562 237.257812 444.851562 L 237.300781 445.238281 C 237.359375 445.488281 237.425781 445.734375 237.542969 445.941406 C 237.636719 446.167969 237.78125 446.347656 237.914062 446.519531 C 238.039062 446.691406 238.207031 446.816406 238.339844 446.945312 C 238.480469 447.0625 238.632812 447.144531 238.753906 447.226562 C 238.871094 447.3125 239.003906 447.347656 239.09375 447.390625 C 239.292969 447.472656 239.402344 447.507812 239.402344 447.507812 C 239.402344 447.507812 239.316406 447.429688 239.160156 447.289062 C 239.085938 447.21875 238.984375 447.148438 238.894531 447.039062 C 238.804688 446.933594 238.691406 446.824219 238.585938 446.695312 C 238.496094 446.554688 238.371094 446.421875 238.285156 446.253906 C 238.195312 446.089844 238.101562 445.917969 238.035156 445.730469 C 237.949219 445.546875 237.933594 445.339844 237.882812 445.144531 L 237.859375 444.835938 C 237.855469 444.738281 237.875 444.636719 237.878906 444.53125 C 237.910156 444.335938 237.945312 444.128906 238.035156 443.957031 " fill-opacity="1" fill-rule="nonzero"/><path fill="#232946" d="M 233.667969 440.757812 C 233.761719 440.925781 233.816406 441.019531 233.816406 441.019531 C 233.816406 441.019531 233.808594 440.910156 233.785156 440.71875 C 233.753906 440.527344 233.699219 440.25 233.574219 439.9375 C 233.511719 439.777344 233.429688 439.609375 233.332031 439.441406 C 233.230469 439.273438 233.117188 439.09375 232.96875 438.933594 C 232.832031 438.769531 232.671875 438.605469 232.484375 438.46875 C 232.308594 438.324219 232.105469 438.199219 231.898438 438.089844 C 231.6875 437.996094 231.46875 437.898438 231.246094 437.847656 C 231.027344 437.773438 230.800781 437.757812 230.589844 437.730469 C 230.160156 437.695312 229.761719 437.730469 229.433594 437.796875 C 229.097656 437.867188 228.835938 437.949219 228.660156 438.03125 C 228.480469 438.101562 228.382812 438.148438 228.382812 438.148438 C 228.382812 438.148438 228.492188 438.152344 228.6875 438.148438 C 228.878906 438.132812 229.152344 438.140625 229.464844 438.144531 C 229.617188 438.15625 229.789062 438.164062 229.96875 438.179688 C 230.144531 438.199219 230.328125 438.226562 230.515625 438.257812 C 230.699219 438.300781 230.890625 438.34375 231.078125 438.410156 C 231.269531 438.460938 231.445312 438.554688 231.628906 438.632812 C 231.804688 438.726562 231.976562 438.820312 232.132812 438.9375 C 232.289062 439.054688 232.449219 439.167969 232.582031 439.300781 C 232.859375 439.558594 233.078125 439.847656 233.261719 440.097656 C 233.441406 440.359375 233.578125 440.589844 233.667969 440.757812 " fill-opacity="1" fill-rule="nonzero"/><path fill="#232946" d="M 255.894531 440.800781 C 255.820312 440.644531 255.71875 440.457031 255.59375 440.246094 C 255.464844 440.039062 255.296875 439.820312 255.097656 439.589844 C 254.699219 439.136719 254.144531 438.65625 253.425781 438.347656 C 253.074219 438.191406 252.679688 438.082031 252.277344 438.023438 C 252.078125 437.992188 251.867188 437.984375 251.652344 437.980469 C 251.546875 437.976562 251.457031 437.988281 251.359375 437.988281 C 251.265625 437.992188 251.136719 438.003906 251.046875 438.019531 C 250.234375 438.121094 249.457031 438.390625 248.796875 438.75 C 248.136719 439.113281 247.574219 439.542969 247.160156 439.980469 C 246.746094 440.414062 246.46875 440.828125 246.300781 441.140625 C 246.210938 441.292969 246.167969 441.417969 246.125 441.5 C 246.089844 441.582031 246.070312 441.628906 246.070312 441.628906 L 246.070312 441.632812 C 246.054688 441.667969 246.066406 441.707031 246.101562 441.726562 C 246.136719 441.746094 246.179688 441.734375 246.199219 441.699219 C 246.199219 441.699219 246.296875 441.523438 246.492188 441.253906 C 246.675781 440.984375 246.984375 440.613281 247.414062 440.246094 C 247.628906 440.0625 247.867188 439.867188 248.136719 439.691406 C 248.40625 439.511719 248.703125 439.347656 249.023438 439.199219 C 249.660156 438.910156 250.378906 438.671875 251.117188 438.605469 C 251.214844 438.59375 251.28125 438.585938 251.382812 438.585938 C 251.480469 438.585938 251.582031 438.574219 251.671875 438.578125 C 251.84375 438.589844 252.015625 438.59375 252.195312 438.628906 C 252.546875 438.675781 252.886719 438.761719 253.203125 438.898438 C 253.835938 439.144531 254.367188 439.527344 254.785156 439.898438 C 254.992188 440.089844 255.160156 440.285156 255.3125 440.453125 C 255.464844 440.628906 255.589844 440.789062 255.683594 440.925781 C 255.875 441.199219 255.976562 441.367188 255.976562 441.367188 L 255.980469 441.367188 C 255.996094 441.394531 256.03125 441.40625 256.058594 441.394531 C 256.09375 441.382812 256.113281 441.34375 256.101562 441.308594 C 256.101562 441.308594 256.082031 441.261719 256.050781 441.171875 C 256.015625 441.089844 255.972656 440.957031 255.894531 440.800781 " fill-opacity="1" fill-rule="nonzero"/><path fill="#232946" d="M 247.332031 435.472656 C 248.617188 434.617188 249.800781 434.355469 251.289062 434.226562 C 251.972656 434.140625 254.882812 433.777344 253.847656 432.457031 C 253.050781 431.628906 250.128906 431.878906 249.117188 432.121094 C 247.769531 432.460938 245.386719 433.339844 244.9375 434.84375 C 244.371094 436.824219 246.371094 436.113281 247.332031 435.472656 " fill-opacity="1" fill-rule="nonzero"/><path fill="#232946" d="M 234.191406 435.695312 C 235.074219 436.441406 236.976562 437.378906 236.640625 435.34375 C 236.363281 433.800781 234.097656 432.660156 232.796875 432.164062 C 231.820312 431.796875 230.632812 431.554688 229.585938 431.566406 C 229.183594 431.566406 228.53125 431.769531 228.144531 432.078125 C 227.78125 432.375 227.65625 432.769531 228.199219 433.195312 C 228.765625 433.632812 229.707031 433.867188 230.398438 434.007812 C 231.867188 434.304688 233.011719 434.699219 234.191406 435.695312 " fill-opacity="1" fill-rule="nonzero"/><path fill="#232946" d="M 233.457031 449.914062 L 233.007812 450.332031 C 235.089844 452.566406 237.667969 453.429688 240.261719 453.429688 C 242.78125 453.429688 245.3125 452.617188 247.421875 451.457031 L 247.128906 450.921875 C 243.054688 453.160156 237.324219 454.070312 233.457031 449.914062 " fill-opacity="1" fill-rule="nonzero"/></svg>