<svg xmlns="http://www.w3.org/2000/svg" xmlns:xlink="http://www.w3.org/1999/xlink" width="1080" zoomAndPan="magnify" viewBox="0 0 810 809.999993" height="1080" preserveAspectRatio="xMidYMid meet" version="1.0"><defs><filter x="0%" y="0%" width="100%" height="100%" id="1122f78c7c"><feColorMatrix values="0 0 0 0 1 0 0 0 0 1 0 0 0 0 1 0 0 0 1 0" color-interpolation-filters="sRGB"/></filter><clipPath id="eafc83d556"><path d="M 0 554 L 423 554 L 423 810 L 0 810 Z M 0 554 " clip-rule="nonzero"/></clipPath><clipPath id="155db92f0b"><path d="M 578.9375 807.355469 L 354.804688 1225.015625 L -261.113281 894.488281 L -36.976562 476.828125 Z M 578.9375 807.355469 " clip-rule="nonzero"/></clipPath><clipPath id="c81583a10e"><path d="M 578.9375 807.355469 L 354.804688 1225.015625 L -261.113281 894.488281 L -36.976562 476.828125 Z M 578.9375 807.355469 " clip-rule="nonzero"/></clipPath><clipPath id="72e5ffba5f"><path d="M 490 0 L 810 0 L 810 391 L 490 391 Z M 490 0 " clip-rule="nonzero"/></clipPath><clipPath id="1b89a56961"><path d="M 1230.707031 78.46875 L 932.792969 447.148438 L 389.109375 7.816406 L 687.023438 -360.859375 Z M 1230.707031 78.46875 " clip-rule="nonzero"/></clipPath><clipPath id="29be28287a"><path d="M 1230.707031 78.46875 L 932.792969 447.148438 L 389.109375 7.816406 L 687.023438 -360.859375 Z M 1230.707031 78.46875 " clip-rule="nonzero"/></clipPath><mask id="960be84099"><g filter="url(#1122f78c7c)"><rect x="-81" width="972" fill="#000000" y="-80.999999" height="971.999992" fill-opacity="0.15"/></g></mask><clipPath id="fcb624196f"><path d="M 0 61 L 221 61 L 221 199 L 0 199 Z M 0 61 " clip-rule="nonzero"/></clipPath><clipPath id="3316cd36fb"><path d="M 138.007812 -27.085938 L 253.007812 426.5625 L -194.097656 539.90625 L -309.097656 86.253906 Z M 138.007812 -27.085938 " clip-rule="nonzero"/></clipPath><clipPath id="08257e0c8c"><path d="M 138.007812 -27.085938 L 253.007812 426.5625 L -194.097656 539.90625 L -309.097656 86.253906 Z M 138.007812 -27.085938 " clip-rule="nonzero"/></clipPath><clipPath id="ed6c97c0fc"><rect x="0" width="247" y="0" height="199"/></clipPath><mask id="52bc31074c"><g filter="url(#1122f78c7c)"><rect x="-81" width="972" fill="#000000" y="-80.999999" height="971.999992" fill-opacity="0.15"/></g></mask><clipPath id="494f179464"><path d="M 36 0 L 304 0 L 304 120 L 36 120 Z M 36 0 " clip-rule="nonzero"/></clipPath><clipPath id="4b2db05255"><path d="M 425.902344 -360.902344 L 540.902344 92.75 L 93.792969 206.09375 L -21.207031 -247.558594 Z M 425.902344 -360.902344 " clip-rule="nonzero"/></clipPath><clipPath id="70073d3ef4"><path d="M 425.902344 -360.902344 L 540.902344 92.75 L 93.792969 206.09375 L -21.207031 -247.558594 Z M 425.902344 -360.902344 " clip-rule="nonzero"/></clipPath><clipPath id="3ee88a9454"><rect x="0" width="304" y="0" height="189"/></clipPath></defs><g clip-path="url(#eafc83d556)"><g clip-path="url(#155db92f0b)"><g clip-path="url(#c81583a10e)"><path fill="#8177a6" d="M 379.515625 1155.878906 C 303.171875 1196.882812 258.65625 1153.402344 209.8125 1106.464844 C 191.546875 1088.621094 179.421875 1067.988281 159.21875 1058.175781 C 136.167969 1046.941406 106.871094 1046.582031 81.535156 1042.882812 C 37.777344 1036.417969 -22.75 1019.710938 -61.539062 997.453125 C -79.488281 987.097656 -98.214844 969.726562 -113.613281 954.039062 C -138.355469 928.285156 -157.960938 883.738281 -164.257812 852.621094 C -168.007812 834.628906 -173.9375 818.96875 -173.246094 802.121094 C -169.214844 723.136719 -114.074219 653.429688 -47.09375 593.175781 C -35.492188 582.699219 -15.183594 570.601562 -2.027344 566.835938 L 12.257812 559.242188 C 31.105469 554.09375 50.84375 553.242188 70.132812 556.683594 C 132.132812 567.582031 174.554688 667.988281 226.535156 717.539062 C 246.15625 736.316406 269.757812 749.394531 292.222656 759.800781 C 314.605469 770.160156 340.046875 770.203125 359.984375 790.699219 C 388.644531 820.101562 394.125 878.101562 398.25 906.917969 C 402.496094 937.246094 405.164062 965.898438 408.230469 993.421875 L 421.296875 1025.179688 C 424.003906 1042.617188 421.09375 1074.359375 418.554688 1091.96875 C 415.691406 1108.0625 409.3125 1123.40625 399.78125 1136.75 C 394.085938 1143.902344 383.679688 1148.113281 379.515625 1155.878906 " fill-opacity="1" fill-rule="nonzero"/></g></g></g><g clip-path="url(#72e5ffba5f)"><g clip-path="url(#1b89a56961)"><g clip-path="url(#29be28287a)"><path fill="#8177a6" d="M 969.933594 383.8125 C 887.292969 409.898438 851.644531 358.898438 812.382812 303.695312 C 797.757812 282.765625 789.679688 260.234375 771.65625 246.835938 C 751.097656 231.511719 722.378906 225.710938 698.171875 217.359375 C 656.382812 202.867188 600.015625 175.191406 566.046875 146.109375 C 550.335938 132.59375 535.167969 112.042969 522.957031 93.765625 C 503.4375 63.859375 492.460938 16.441406 492.0625 -15.300781 C 491.726562 -33.679688 488.8125 -50.167969 492.625 -66.59375 C 511.277344 -143.449219 578.421875 -201.679688 655.441406 -248.425781 C 668.792969 -256.5625 690.996094 -264.667969 704.625 -265.921875 L 720.070312 -270.726562 C 739.546875 -272.277344 759.097656 -269.445312 777.410156 -262.472656 C 836.300781 -240.234375 859.304688 -133.6875 901.164062 -75.335938 C 916.945312 -53.234375 937.707031 -35.992188 957.839844 -21.59375 C 977.90625 -7.25 1002.898438 -2.472656 1018.671875 21.371094 C 1041.363281 55.59375 1035.957031 113.601562 1034.652344 142.683594 C 1033.183594 173.269531 1030.472656 201.917969 1028.367188 229.535156 L 1035.296875 263.167969 C 1034.714844 280.800781 1025.949219 311.449219 1020.179688 328.28125 C 1014.371094 343.5625 1005.25 357.449219 993.402344 368.785156 C 986.476562 374.753906 975.472656 376.957031 969.933594 383.8125 " fill-opacity="1" fill-rule="nonzero"/></g></g></g><g mask="url(#960be84099)"><g transform="matrix(1, 0, 0, 1, 0, 611)"><g clip-path="url(#ed6c97c0fc)"><g clip-path="url(#fcb624196f)"><g clip-path="url(#3316cd36fb)"><g clip-path="url(#08257e0c8c)"><path fill="#ffffff" d="M 218.894531 312.070312 C 218.894531 312.070312 212.765625 267.816406 178.453125 211.34375 C 127.363281 127.042969 26.582031 86.238281 -4.40625 72.28125 C -35.394531 58.324219 -148.429688 45.894531 -211.933594 124.890625 C -275.4375 203.886719 -257.683594 287.550781 -191.476562 368.019531 C -125.265625 448.488281 -18.214844 460.253906 92.375 449.394531 C 202.964844 438.539062 227.644531 360.207031 218.894531 312.070312 Z M 89.238281 443.828125 C -18.402344 454.484375 -122.636719 443.09375 -187.039062 365.078125 C -251.445312 287.058594 -268.59375 205.785156 -206.707031 129.019531 C -144.820312 52.25 -34.859375 64.367188 -4.644531 77.796875 C 25.574219 91.222656 123.507812 130.835938 173.246094 212.664062 C 206.503906 267.496094 212.480469 310.425781 212.480469 310.425781 C 220.945312 357.089844 196.792969 433.195312 89.238281 443.828125 Z M 89.238281 443.828125 " fill-opacity="1" fill-rule="nonzero"/></g></g></g></g></g></g><g mask="url(#52bc31074c)"><g transform="matrix(1, 0, 0, 1, 506, 0.000000000000039746)"><g clip-path="url(#3ee88a9454)"><g clip-path="url(#494f179464)"><g clip-path="url(#4b2db05255)"><g clip-path="url(#70073d3ef4)"><path fill="#ffffff" d="M 506.789062 -21.742188 C 506.789062 -21.742188 500.660156 -65.996094 466.347656 -122.46875 C 415.253906 -206.769531 314.472656 -247.574219 283.488281 -261.53125 C 252.5 -275.488281 139.460938 -287.917969 75.957031 -208.921875 C 12.453125 -129.925781 30.207031 -46.261719 96.417969 34.207031 C 162.625 114.675781 269.679688 126.441406 380.265625 115.582031 C 490.855469 104.726562 515.535156 26.394531 506.789062 -21.742188 Z M 377.128906 110.015625 C 269.488281 120.671875 165.257812 109.28125 100.851562 31.265625 C 36.445312 -46.753906 19.296875 -128.027344 81.183594 -204.792969 C 143.070312 -281.5625 253.03125 -269.445312 283.25 -256.019531 C 313.464844 -242.589844 411.398438 -202.976562 461.136719 -121.148438 C 494.398438 -66.320312 500.371094 -23.386719 500.371094 -23.386719 C 508.835938 23.273438 484.683594 99.382812 377.128906 110.015625 Z M 377.128906 110.015625 " fill-opacity="1" fill-rule="nonzero"/></g></g></g></g></g></g></svg>